<mxfile host="app.diagrams.net" modified="2023-03-27T06:46:28.725Z" agent="Mozilla/5.0 (Windows NT 10.0; Win64; x64) AppleWebKit/537.36 (KHTML, like Gecko) Chrome/111.0.0.0 Safari/537.36" etag="P2FfhKUWEpWSvE7w4Dgm" version="21.1.1" type="google">
  <diagram name="Trang-1" id="w5CbW0QfyDrJxNu26Srx">
    <mxGraphModel grid="1" page="1" gridSize="10" guides="1" tooltips="1" connect="1" arrows="1" fold="1" pageScale="1" pageWidth="827" pageHeight="1169" math="0" shadow="0">
      <root>
        <mxCell id="0" />
        <mxCell id="1" parent="0" />
        <mxCell id="Ekca3IZYvol2tR-6OHhr-2" style="edgeStyle=orthogonalEdgeStyle;rounded=0;orthogonalLoop=1;jettySize=auto;html=1;" edge="1" parent="1" source="Ekca3IZYvol2tR-6OHhr-1" target="Ekca3IZYvol2tR-6OHhr-3">
          <mxGeometry relative="1" as="geometry">
            <mxPoint x="414" y="180" as="targetPoint" />
          </mxGeometry>
        </mxCell>
        <mxCell id="Ekca3IZYvol2tR-6OHhr-1" value="&lt;font style=&quot;font-size: 18px;&quot;&gt;START&lt;/font&gt;" style="ellipse;whiteSpace=wrap;html=1;" vertex="1" parent="1">
          <mxGeometry x="321.01" y="-40" width="186" height="120" as="geometry" />
        </mxCell>
        <mxCell id="Ekca3IZYvol2tR-6OHhr-5" value="" style="edgeStyle=orthogonalEdgeStyle;rounded=0;orthogonalLoop=1;jettySize=auto;html=1;" edge="1" parent="1" source="Ekca3IZYvol2tR-6OHhr-3" target="Ekca3IZYvol2tR-6OHhr-4">
          <mxGeometry relative="1" as="geometry" />
        </mxCell>
        <mxCell id="Ekca3IZYvol2tR-6OHhr-3" value="&lt;font style=&quot;font-size: 18px;&quot;&gt;Login page -&amp;nbsp;&lt;br&gt;enter your email &lt;br&gt;and password&lt;/font&gt;" style="shape=parallelogram;perimeter=parallelogramPerimeter;whiteSpace=wrap;html=1;fixedSize=1;" vertex="1" parent="1">
          <mxGeometry x="299.63" y="150" width="228.75" height="100" as="geometry" />
        </mxCell>
        <mxCell id="Ekca3IZYvol2tR-6OHhr-11" value="&lt;b&gt;&lt;font style=&quot;font-size: 36px;&quot;&gt;NO&lt;/font&gt;&lt;/b&gt;" style="edgeStyle=orthogonalEdgeStyle;rounded=0;orthogonalLoop=1;jettySize=auto;html=1;" edge="1" parent="1" source="Ekca3IZYvol2tR-6OHhr-4" target="Ekca3IZYvol2tR-6OHhr-12">
          <mxGeometry relative="1" as="geometry">
            <mxPoint x="90" y="414.5899999999999" as="targetPoint" />
          </mxGeometry>
        </mxCell>
        <mxCell id="Ekca3IZYvol2tR-6OHhr-17" value="&lt;b style=&quot;&quot;&gt;&lt;font style=&quot;font-size: 36px;&quot;&gt;YES&lt;/font&gt;&lt;/b&gt;" style="edgeStyle=orthogonalEdgeStyle;rounded=0;orthogonalLoop=1;jettySize=auto;html=1;exitX=1;exitY=0.5;exitDx=0;exitDy=0;" edge="1" parent="1" source="Ekca3IZYvol2tR-6OHhr-4">
          <mxGeometry relative="1" as="geometry">
            <mxPoint x="800" y="414.5899999999999" as="targetPoint" />
            <mxPoint x="638.9999999999995" y="414.59000000000015" as="sourcePoint" />
          </mxGeometry>
        </mxCell>
        <mxCell id="Ekca3IZYvol2tR-6OHhr-4" value="&lt;font style=&quot;font-size: 14px;&quot;&gt;data input passed &lt;br&gt;all validation&amp;nbsp;&lt;br&gt;and&amp;nbsp;&lt;br&gt;matched with database temp &lt;br&gt;(Objects users in login page)&lt;/font&gt;" style="rhombus;whiteSpace=wrap;html=1;" vertex="1" parent="1">
          <mxGeometry x="248" y="310" width="331" height="209.18" as="geometry" />
        </mxCell>
        <mxCell id="Ekca3IZYvol2tR-6OHhr-14" value="&lt;b&gt;&lt;font style=&quot;font-size: 18px;&quot;&gt;CLICKED BUTTON BACK TO HOMEPGAGE&lt;/font&gt;&lt;/b&gt;" style="edgeStyle=orthogonalEdgeStyle;orthogonalLoop=1;jettySize=auto;html=1;rounded=0;" edge="1" parent="1" source="Ekca3IZYvol2tR-6OHhr-12" target="Ekca3IZYvol2tR-6OHhr-3">
          <mxGeometry relative="1" as="geometry">
            <mxPoint x="5" y="190" as="targetPoint" />
            <Array as="points">
              <mxPoint x="-110" y="190" />
            </Array>
          </mxGeometry>
        </mxCell>
        <mxCell id="Ekca3IZYvol2tR-6OHhr-12" value="&lt;font style=&quot;font-size: 18px;&quot;&gt;LoginErrors Page&lt;/font&gt;" style="rounded=1;whiteSpace=wrap;html=1;" vertex="1" parent="1">
          <mxGeometry x="-190" y="360.9" width="190" height="107.39" as="geometry" />
        </mxCell>
        <mxCell id="Ekca3IZYvol2tR-6OHhr-19" style="edgeStyle=orthogonalEdgeStyle;rounded=0;orthogonalLoop=1;jettySize=auto;html=1;" edge="1" parent="1" source="Ekca3IZYvol2tR-6OHhr-18" target="Ekca3IZYvol2tR-6OHhr-22">
          <mxGeometry relative="1" as="geometry">
            <mxPoint x="710" y="680" as="targetPoint" />
            <Array as="points">
              <mxPoint x="895" y="550" />
              <mxPoint x="710" y="550" />
            </Array>
          </mxGeometry>
        </mxCell>
        <mxCell id="Ekca3IZYvol2tR-6OHhr-24" value="&lt;font style=&quot;font-size: 18px;&quot;&gt;&lt;b&gt;CLICKED BUTTON UPDATE&lt;/b&gt;&lt;/font&gt;" style="edgeLabel;html=1;align=center;verticalAlign=middle;resizable=0;points=[];" connectable="0" vertex="1" parent="Ekca3IZYvol2tR-6OHhr-19">
          <mxGeometry x="0.7128" y="2" relative="1" as="geometry">
            <mxPoint as="offset" />
          </mxGeometry>
        </mxCell>
        <mxCell id="Ekca3IZYvol2tR-6OHhr-21" style="edgeStyle=orthogonalEdgeStyle;rounded=0;orthogonalLoop=1;jettySize=auto;html=1;" edge="1" parent="1" source="Ekca3IZYvol2tR-6OHhr-18" target="Ekca3IZYvol2tR-6OHhr-23">
          <mxGeometry relative="1" as="geometry">
            <mxPoint x="1100" y="680" as="targetPoint" />
            <Array as="points">
              <mxPoint x="895" y="550" />
              <mxPoint x="1090" y="550" />
            </Array>
          </mxGeometry>
        </mxCell>
        <mxCell id="Ekca3IZYvol2tR-6OHhr-25" value="&lt;font style=&quot;font-size: 18px;&quot;&gt;&lt;b&gt;CLICKED BUTTON CANCEL&lt;/b&gt;&lt;/font&gt;" style="edgeLabel;html=1;align=center;verticalAlign=middle;resizable=0;points=[];" connectable="0" vertex="1" parent="Ekca3IZYvol2tR-6OHhr-21">
          <mxGeometry x="0.7232" y="1" relative="1" as="geometry">
            <mxPoint as="offset" />
          </mxGeometry>
        </mxCell>
        <mxCell id="Ekca3IZYvol2tR-6OHhr-18" value="&lt;font style=&quot;font-size: 18px;&quot;&gt;Profile Page&lt;/font&gt;" style="rounded=1;whiteSpace=wrap;html=1;" vertex="1" parent="1">
          <mxGeometry x="800" y="360.9" width="190" height="107.39" as="geometry" />
        </mxCell>
        <mxCell id="Ekca3IZYvol2tR-6OHhr-22" value="&lt;font style=&quot;font-size: 18px;&quot;&gt;alert on browser &lt;br&gt;all info updated&lt;/font&gt;" style="shape=parallelogram;perimeter=parallelogramPerimeter;whiteSpace=wrap;html=1;fixedSize=1;" vertex="1" parent="1">
          <mxGeometry x="610" y="690" width="191" height="90" as="geometry" />
        </mxCell>
        <mxCell id="Ekca3IZYvol2tR-6OHhr-23" value="&lt;font style=&quot;font-size: 14px;&quot;&gt;reset all info updated&lt;br&gt;(because data &lt;br&gt;are objects fixed)&lt;/font&gt;" style="shape=parallelogram;perimeter=parallelogramPerimeter;whiteSpace=wrap;html=1;fixedSize=1;" vertex="1" parent="1">
          <mxGeometry x="990" y="690" width="191" height="90" as="geometry" />
        </mxCell>
      </root>
    </mxGraphModel>
  </diagram>
</mxfile>
